<svg xmlns="http://www.w3.org/2000/svg">  
   <symbol id="facebook" viewBox="0 0 24 24">
     <path fill-rule="evenodd" d="M20 1a3 3 0 0 1 3 3v16a3 3 0 0 1-3 3H4a3 3 0 0 1-3-3V4a3 3 0 0 1 3-3h16zm0 2a1 1 0 0 1 1 1v16a1 1 0 0 1-1 1h-5v-7h2.076a1 1 0 0 0 .949-.684l.443-1.329a.75.75 0 0 0-.712-.987H15V9a1.08 1.08 0 0 1 1-1h2a1 1 0 0 0 1-1v-.686a.71.71 0 0 0-.519-.695C17.171 5.273 16 5.273 16 5.273c-2.5 0-4 1.727-4 3.227V11h-2a1 1 0 0 0-1 1v1a1 1 0 0 0 1 1h2v7H4a1 1 0 0 1-1-1V4a1 1 0 0 1 1-1h16z"  />
   </symbol>   
   <symbol id="linkedin" viewBox="0 0 24 24">
    <path d="M6.5 8a1.5 1.5 0 1 0 0-3 1.5 1.5 0 1 0 0 3zM5 10a1 1 0 0 1 1-1h1a1 1 0 0 1 1 1v8a1 1 0 0 1-1 1H6a1 1 0 0 1-1-1v-8zm6 9h1a1 1 0 0 0 1-1v-4.5c0-1.5 3-2.5 3-.5v5a1 1 0 0 0 1 1h1a1 1 0 0 0 1-1v-6c0-2-1.5-3-3.5-3S13 10.5 13 10.5V10a1 1 0 0 0-1-1h-1a1 1 0 0 0-1 1v8a1 1 0 0 0 1 1z"/><path fill-rule="evenodd" d="M20 1a3 3 0 0 1 3 3v16a3 3 0 0 1-3 3H4a3 3 0 0 1-3-3V4a3 3 0 0 1 3-3h16zm0 2a1 1 0 0 1 1 1v16a1 1 0 0 1-1 1H4a1 1 0 0 1-1-1V4a1 1 0 0 1 1-1h16z"/>
   </symbol>   
   <symbol id="instagram" viewBox="0 0 24 24">
    <path fill-rule="evenodd" d="M12 18a6 6 0 1 0 0-12 6 6 0 1 0 0 12zm0-2a4 4 0 1 0 0-8 4 4 0 1 0 0 8z"/><path d="M18 5a1 1 0 1 0 0 2 1 1 0 1 0 0-2z"/><path fill-rule="evenodd" d="M1.654 4.276C1 5.56 1 7.24 1 10.6v2.8c0 3.36 0 5.041.654 6.324a6 6 0 0 0 2.622 2.622C5.56 23 7.24 23 10.6 23h2.8c3.36 0 5.041 0 6.324-.654a6 6 0 0 0 2.622-2.622C23 18.441 23 16.76 23 13.4v-2.8c0-3.36 0-5.04-.654-6.324a6 6 0 0 0-2.622-2.622C18.441 1 16.76 1 13.4 1h-2.8c-3.36 0-5.04 0-6.324.654a6 6 0 0 0-2.622 2.622zM13.4 3h-2.8l-3.778.075c-.877.072-1.325.201-1.638.361a4 4 0 0 0-1.748 1.748c-.159.313-.289.761-.361 1.638C3.002 7.722 3 8.887 3 10.6v2.8l.075 3.778c.072.877.201 1.325.361 1.638a4 4 0 0 0 1.748 1.748c.313.159.761.289 1.638.361.9.073 2.065.075 3.778.075h2.8l3.778-.075c.877-.072 1.325-.201 1.638-.361a4 4 0 0 0 1.748-1.748c.159-.313.289-.761.361-1.638.073-.9.075-2.065.075-3.778v-2.8l-.075-3.778c-.072-.877-.201-1.325-.361-1.638a4 4 0 0 0-1.748-1.748c-.313-.159-.761-.289-1.638-.361C16.278 3.002 15.113 3 13.4 3z"/>
   </symbol>   
</svg>
